<svg xmlns="http://www.w3.org/2000/svg" height="40" viewBox="0 96 960 960" width="40"><path d="M785.269 914.371 530.501 659.499q-29.502 26.199-69.036 40.003-39.533 13.805-80.64 13.805-100.978 0-170.677-69.711-69.698-69.71-69.698-169.473 0-99.764 69.423-169.558 69.423-69.795 169.62-69.795 100.198 0 169.974 69.757 69.776 69.756 69.776 169.593 0 41.752-14.411 81.136-14.41 39.385-40.064 70.298L820.05 879.333l-34.781 35.038ZM380.256 665.423q79.907 0 135.505-55.536t55.598-135.91q0-80.375-55.598-135.849-55.598-55.475-135.767-55.475-80.511 0-136.086 55.537-55.575 55.536-55.575 135.91 0 80.375 55.619 135.849 55.618 55.474 136.304 55.474Z"/></svg>